HIERARCHY
ROOT Hips
{
	OFFSET -0.089718 121.760773 1.256875
	CHANNELS 6 Xposition Yposition Zposition Xrotation Yrotation Zrotation 
	JOINT Spine
	{
		OFFSET 0.071961 7.257324 -0.789679
		CHANNELS 3 Xrotation Yrotation Zrotation
		JOINT Spine1
		{
			OFFSET 0.000000 12.508743 -0.658066
			CHANNELS 3 Xrotation Yrotation Zrotation
			JOINT Spine1_split
			{
				OFFSET 0.000000 12.508743 -0.658066
				CHANNELS 3 Xrotation Yrotation Zrotation
				JOINT Spine2
				{
					OFFSET 0.000000 12.508743 -0.658066
					CHANNELS 3 Xrotation Yrotation Zrotation
					JOINT Neck
					{
						OFFSET 0.000000 14.033295 7.520357
						CHANNELS 3 Xrotation Yrotation Zrotation
						JOINT Head
						{
							OFFSET 0.000000 8.198502 5.703135
							CHANNELS 3 Xrotation Yrotation Zrotation
							JOINT HeadTop_End
							{
								OFFSET 0.000000 17.760834 13.332673
								CHANNELS 3 Xrotation Yrotation Zrotation
								End Site
								{
									OFFSET 0.000000 0.000000 0.000000
								}
							}
						}
					}
					JOINT LeftShoulder
					{
						OFFSET 6.292447 5.785309 -0.668987
						CHANNELS 3 Xrotation Yrotation Zrotation
						JOINT LeftShoulder_split
						{
							OFFSET 6.292447 5.785309 -0.668987
							CHANNELS 3 Xrotation Yrotation Zrotation
							JOINT LeftArm
							{
								OFFSET 13.906050 -6.096512 1.965051
								CHANNELS 3 Xrotation Yrotation Zrotation
								JOINT LeftForeArm
								{
									OFFSET 34.136707 -0.070145 0.483191
									CHANNELS 3 Xrotation Yrotation Zrotation
									JOINT LeftHand
									{
										OFFSET 40.956070 -0.000046 0.579759
										CHANNELS 3 Xrotation Yrotation Zrotation
										JOINT LeftHandThumb1
										{
											OFFSET 9.870941 -7.205917 9.687083
											CHANNELS 3 Xrotation Yrotation Zrotation
											JOINT LeftHandThumb2
											{
												OFFSET 1.819832 -1.059479 1.085292
												CHANNELS 3 Xrotation Yrotation Zrotation
												JOINT LeftHandThumb3
												{
													OFFSET 2.094803 -1.219498 1.249332
													CHANNELS 3 Xrotation Yrotation Zrotation
													JOINT LeftHandThumb4
													{
														OFFSET 4.803749 -2.796570 2.864868
														CHANNELS 3 Xrotation Yrotation Zrotation
														End Site
														{
															OFFSET 0.000000 0.000000 0.000000
														}
													}
												}
											}
										}
										JOINT LeftHandIndex1
										{
											OFFSET 18.323029 -0.939438 4.853191
											CHANNELS 3 Xrotation Yrotation Zrotation
											JOINT LeftHandIndex2
											{
												OFFSET 4.710793 -0.000031 0.066666
												CHANNELS 3 Xrotation Yrotation Zrotation
												JOINT LeftHandIndex3
												{
													OFFSET 2.876877 -0.226105 0.045824
													CHANNELS 3 Xrotation Yrotation Zrotation
													JOINT LeftHandIndex4
													{
														OFFSET 6.145302 -0.000046 0.087005
														CHANNELS 3 Xrotation Yrotation Zrotation
														End Site
														{
															OFFSET 0.000000 0.000000 0.000000
														}
													}
												}
											}
										}
										JOINT LeftHandMiddle1
										{
											OFFSET 18.011223 0.000015 0.254925
											CHANNELS 3 Xrotation Yrotation Zrotation
											JOINT LeftHandMiddle2
											{
												OFFSET 4.946175 -0.000015 0.070024
												CHANNELS 3 Xrotation Yrotation Zrotation
												JOINT LeftHandMiddle3
												{
													OFFSET 3.341888 0.000015 0.047322
													CHANNELS 3 Xrotation Yrotation Zrotation
													JOINT LeftHandMiddle4
													{
														OFFSET 4.461334 -0.000031 0.063172
														CHANNELS 3 Xrotation Yrotation Zrotation
														End Site
														{
															OFFSET 0.000000 0.000000 0.000000
														}
													}
												}
											}
										}
										JOINT LeftHandRing1
										{
											OFFSET 15.906670 -0.087616 -3.901815
											CHANNELS 3 Xrotation Yrotation Zrotation
											JOINT LeftHandRing2
											{
												OFFSET 3.526680 -0.000031 0.049965
												CHANNELS 3 Xrotation Yrotation Zrotation
												JOINT LeftHandRing3
												{
													OFFSET 2.960831 -0.000015 0.041910
													CHANNELS 3 Xrotation Yrotation Zrotation
													JOINT LeftHandRing4
													{
														OFFSET 4.926727 -0.000031 0.069761
														CHANNELS 3 Xrotation Yrotation Zrotation
														End Site
														{
															OFFSET 0.000000 0.000000 0.000000
														}
													}
												}
											}
										}
										JOINT LeftHandPinky1
										{
											OFFSET 12.886803 -0.806839 -6.620516
											CHANNELS 3 Xrotation Yrotation Zrotation
											JOINT LeftHandPinky2
											{
												OFFSET 3.326813 0.000000 0.047121
												CHANNELS 3 Xrotation Yrotation Zrotation
												JOINT LeftHandPinky3
												{
													OFFSET 3.014618 -0.000031 0.042702
													CHANNELS 3 Xrotation Yrotation Zrotation
													JOINT LeftHandPinky4
													{
														OFFSET 5.847153 0.000031 0.082745
														CHANNELS 3 Xrotation Yrotation Zrotation
														End Site
														{
															OFFSET 0.000000 0.000000 0.000000
														}
													}
												}
											}
										}
									}
								}
							}
						}
					}
					JOINT RightShoulder
					{
						OFFSET -6.292447 5.785309 -0.668987
						CHANNELS 3 Xrotation Yrotation Zrotation
						JOINT RightShoulder_split
						{
							OFFSET -6.292447 5.785309 -0.668987
							CHANNELS 3 Xrotation Yrotation Zrotation
							JOINT RightArm
							{
								OFFSET -13.906046 -6.096527 1.965051
								CHANNELS 3 Xrotation Yrotation Zrotation
								JOINT RightForeArm
								{
									OFFSET -34.136711 -0.070145 0.483195
									CHANNELS 3 Xrotation Yrotation Zrotation
									JOINT RightHand
									{
										OFFSET -40.956062 -0.000031 0.579796
										CHANNELS 3 Xrotation Yrotation Zrotation
										JOINT RightHandThumb1
										{
											OFFSET -9.870895 -7.205978 9.687082
											CHANNELS 3 Xrotation Yrotation Zrotation
											JOINT RightHandThumb2
											{
												OFFSET -1.819832 -1.059479 1.085295
												CHANNELS 3 Xrotation Yrotation Zrotation
												JOINT RightHandThumb3
												{
													OFFSET -2.094826 -1.219513 1.249285
													CHANNELS 3 Xrotation Yrotation Zrotation
													JOINT RightHandThumb4
													{
														OFFSET -4.803757 -2.796585 2.864836
														CHANNELS 3 Xrotation Yrotation Zrotation
														End Site
														{
															OFFSET 0.000000 0.000000 0.000000
														}
													}
												}
											}
										}
										JOINT RightHandIndex1
										{
											OFFSET -18.323013 -0.939499 4.853236
											CHANNELS 3 Xrotation Yrotation Zrotation
											JOINT RightHandIndex2
											{
												OFFSET -4.710800 -0.000031 0.066705
												CHANNELS 3 Xrotation Yrotation Zrotation
												JOINT RightHandIndex3
												{
													OFFSET -2.876869 -0.226089 0.045846
													CHANNELS 3 Xrotation Yrotation Zrotation
													JOINT RightHandIndex4
													{
														OFFSET -6.145317 0.000000 0.087043
														CHANNELS 3 Xrotation Yrotation Zrotation
														End Site
														{
															OFFSET 0.000000 0.000000 0.000000
														}
													}
												}
											}
										}
										JOINT RightHandMiddle1
										{
											OFFSET -18.011230 -0.000031 0.254973
											CHANNELS 3 Xrotation Yrotation Zrotation
											JOINT RightHandMiddle2
											{
												OFFSET -4.946175 0.000000 0.069982
												CHANNELS 3 Xrotation Yrotation Zrotation
												JOINT RightHandMiddle3
												{
													OFFSET -3.341881 0.000000 0.047287
													CHANNELS 3 Xrotation Yrotation Zrotation
													JOINT RightHandMiddle4
													{
														OFFSET -4.461334 -0.000031 0.063116
														CHANNELS 3 Xrotation Yrotation Zrotation
														End Site
														{
															OFFSET 0.000000 0.000000 0.000000
														}
													}
												}
											}
										}
										JOINT RightHandRing1
										{
											OFFSET -15.906685 -0.087631 -3.901773
											CHANNELS 3 Xrotation Yrotation Zrotation
											JOINT RightHandRing2
											{
												OFFSET -3.526680 -0.000046 0.049887
												CHANNELS 3 Xrotation Yrotation Zrotation
												JOINT RightHandRing3
												{
													OFFSET -2.960831 0.000015 0.041926
													CHANNELS 3 Xrotation Yrotation Zrotation
													JOINT RightHandRing4
													{
														OFFSET -4.926727 -0.000061 0.069777
														CHANNELS 3 Xrotation Yrotation Zrotation
														End Site
														{
															OFFSET 0.000000 0.000000 0.000000
														}
													}
												}
											}
										}
										JOINT RightHandPinky1
										{
											OFFSET -12.886818 -0.806839 -6.620485
											CHANNELS 3 Xrotation Yrotation Zrotation
											JOINT RightHandPinky2
											{
												OFFSET -3.326813 -0.000015 0.047130
												CHANNELS 3 Xrotation Yrotation Zrotation
												JOINT RightHandPinky3
												{
													OFFSET -3.014618 0.000000 0.042665
													CHANNELS 3 Xrotation Yrotation Zrotation
													JOINT RightHandPinky4
													{
														OFFSET -5.847153 -0.000031 0.082798
														CHANNELS 3 Xrotation Yrotation Zrotation
														End Site
														{
															OFFSET 0.000000 0.000000 0.000000
														}
													}
												}
											}
										}
									}
								}
							}
						}
					}
				}
			}
		}
	}
	JOINT LeftUpLeg
	{
		OFFSET 13.026871 -6.336296 -1.092769
		CHANNELS 3 Xrotation Yrotation Zrotation
		JOINT LeftLeg
		{
			OFFSET 0.531735 -46.096748 9.782727
			CHANNELS 3 Xrotation Yrotation Zrotation
			JOINT LeftFoot
			{
				OFFSET -0.516061 -53.427502 -12.948194
				CHANNELS 3 Xrotation Yrotation Zrotation
				JOINT LeftToeBase
				{
					OFFSET 0.192221 -14.009666 16.364061
					CHANNELS 3 Xrotation Yrotation Zrotation
					JOINT LeftToe_End
					{
						OFFSET -1.784717 -0.561736 9.474806
						CHANNELS 3 Xrotation Yrotation Zrotation
						End Site
						{
							OFFSET 0.000000 0.000000 0.000000
						}
					}
				}
			}
		}
	}
	JOINT RightUpLeg
	{
		OFFSET -12.882952 -6.336288 -1.092769
		CHANNELS 3 Xrotation Yrotation Zrotation
		JOINT RightLeg
		{
			OFFSET -0.517510 -46.096909 9.782776
			CHANNELS 3 Xrotation Yrotation Zrotation
			JOINT RightFoot
			{
				OFFSET 0.532756 -53.427311 -12.948288
				CHANNELS 3 Xrotation Yrotation Zrotation
				JOINT RightToeBase
				{
					OFFSET -0.192224 -14.009682 16.364050
					CHANNELS 3 Xrotation Yrotation Zrotation
					JOINT RightToe_End
					{
						OFFSET 1.784716 -0.561743 9.474806
						CHANNELS 3 Xrotation Yrotation Zrotation
						End Site
						{
							OFFSET 0.000000 0.000000 0.000000
						}
					}
				}
			}
		}
	}
}
MOTION
Frames: 4
Frame Time: 0.016667
1.625577 116.137520 1.113025 -0.382852 -0.102346 -1.797944 -9.204482 1.224838 1.306570 7.246683 -0.041692 -1.878293 0.000000 0.000000 0.000000 7.251812 0.041102 -1.863931 2.287007 -1.008078 3.029061 -5.069789 -2.335754 2.401236 -0.000000 -0.000000 0.000000 0.892944 -0.363511 -11.987869 0.000000 0.000000 0.000000 17.812247 -35.244254 -53.881402 -0.042036 -20.408954 -0.124926 -24.142268 -1.875677 7.408418 0.913310 26.094774 8.586466 5.798545 15.717968 2.034917 0.368566 5.423653 3.318790 -0.000001 0.000003 -0.000001 0.570979 2.099686 -17.447515 0.259473 1.518230 -7.037701 0.232521 0.597475 -10.257103 -0.000002 0.000001 0.000001 0.884157 2.721112 -23.020422 0.571601 2.100984 -17.461546 0.308812 1.417692 -11.601609 -0.000000 -0.000000 0.000002 1.362013 3.455658 -30.031799 0.999744 2.916276 -24.846625 0.647207 2.265716 -18.904531 -0.000002 0.000000 0.000000 4.257137 7.332536 -36.012934 1.404521 -0.576338 -30.787774 0.981976 2.887613 -24.575215 0.000000 0.000000 0.000000 1.709892 -7.765213 12.102028 0.000000 0.000000 0.000000 27.914160 48.958038 48.685732 -0.061351 28.237718 0.132868 -45.336180 -0.263766 -9.793063 6.089849 -20.803330 -12.794488 7.462467 -13.880853 0.364854 0.085881 -2.484344 -2.014473 -0.000001 0.000001 0.000003 0.857530 -2.690243 22.497081 0.404969 -1.921535 10.291820 0.295199 -0.800289 11.883007 -0.000000 0.000000 0.000000 1.067659 -3.045541 25.774424 0.615804 -2.212440 18.252072 0.279677 -1.334933 10.810451 0.000002 0.000001 0.000002 1.358591 -3.472107 29.874503 0.862920 -2.700376 22.587996 0.459242 -1.845913 15.086684 -0.000000 0.000000 -0.000001 1.644689 -3.835847 33.546389 1.070812 -3.050690 25.816887 0.624141 -2.229920 18.407372 0.000000 0.000001 0.000001 -7.150585 5.275101 0.749691 20.536480 -6.244353 -0.698270 -12.838857 -1.682877 3.832645 -0.011896 0.000001 0.000000 0.000000 -0.000000 0.000000 -7.403464 -3.815363 1.971924 18.946842 5.611020 -0.659545 -10.938808 0.090275 -1.100600 -0.000072 0.000001 0.000000 0.000000 -0.000000 -0.000000 
1.619095 116.166176 1.065442 -0.474376 -0.206279 -1.720077 -9.019139 1.151613 1.324075 7.243667 -0.054628 -1.914696 0.000000 0.000000 0.000000 7.249079 0.027204 -1.900875 2.289488 -0.980009 2.997443 -5.155913 -2.237615 2.396680 0.000000 0.000000 -0.000000 0.896146 -0.370154 -11.987869 0.000000 0.000000 0.000000 17.756731 -35.524104 -53.881528 -0.040616 -19.793086 -0.124466 -25.911564 -1.709958 7.314191 0.953876 26.128429 8.578785 5.804927 15.720701 2.024680 0.371494 5.425110 3.314147 0.000002 0.000002 -0.000006 0.616351 2.199747 -18.326214 0.259970 1.519691 -7.049886 0.232736 0.598204 -10.263215 -0.000003 0.000001 0.000001 0.941265 2.821453 -23.894684 0.571966 2.101814 -17.468781 0.308864 1.417833 -11.602763 -0.000001 -0.000001 -0.000002 1.434539 3.554327 -30.900903 0.999814 2.916379 -24.847646 0.646944 2.265153 -18.899574 -0.000000 0.000001 0.000001 4.393779 7.391242 -36.885931 1.404246 -0.576699 -30.784168 0.981348 2.886576 -24.565455 -0.000001 -0.000000 0.000001 1.710735 -7.768554 12.102122 0.000000 0.000000 0.000000 27.371630 48.954087 49.019195 -0.060572 27.944964 0.132529 -44.849433 -0.201930 -9.810249 6.111598 -20.835458 -12.794116 7.462467 -13.880853 0.364855 0.085881 -2.484343 -2.014470 -0.000003 0.000001 -0.000003 0.858381 -2.691780 22.511081 0.405676 -1.923281 10.306613 0.295486 -0.801175 11.890381 0.000001 0.000000 0.000001 1.070436 -3.050995 25.783489 0.616335 -2.213593 18.262177 0.278529 -1.335509 10.813199 -0.000000 -0.000001 -0.000004 1.364405 -3.482132 29.877467 0.863181 -2.700841 22.592268 0.457602 -1.845961 15.083660 0.000000 -0.000001 0.000001 1.653775 -3.849598 33.544039 1.070808 -3.050679 25.816775 0.623745 -2.229063 18.399901 0.000000 -0.000000 -0.000001 -6.971281 5.614541 0.619088 20.392146 -6.197413 -0.685743 -12.812369 -1.211413 3.889163 -0.012531 -0.000000 -0.000001 0.000000 0.000000 0.000000 -7.355215 -3.466705 1.878498 18.922552 5.346221 -0.591634 -10.896927 0.142447 -1.052986 -0.000088 0.000000 -0.000000 0.000000 0.000000 0.000000 
1.610142 116.185600 1.013895 -0.586195 -0.237551 -1.707590 -8.661052 1.061941 1.360224 7.158618 -0.064565 -1.933345 0.000000 0.000000 0.000000 7.164082 0.014678 -1.920349 2.298062 -0.960203 2.970376 -5.268166 -2.191121 2.429276 0.000000 -0.000000 0.000000 0.900168 -0.376596 -11.987856 0.000000 0.000000 0.000000 17.482330 -35.447808 -54.011937 -0.039779 -19.435981 -0.124185 -27.885499 -1.447323 7.108367 0.985488 26.154601 8.572751 5.809991 15.722863 2.016539 0.373807 5.426273 3.310487 -0.000001 0.000002 0.000000 0.618150 2.203638 -18.360592 0.260354 1.520806 -7.059168 0.232901 0.598767 -10.267842 -0.000001 -0.000000 0.000000 0.949930 2.840330 -23.913295 0.571689 2.101212 -17.463363 0.308484 1.416650 -11.592937 -0.000001 0.000000 0.000003 1.455824 3.589865 -30.900271 0.998263 2.913839 -24.823848 0.645441 2.261991 -18.871555 0.000001 0.000000 0.000000 4.429074 7.439823 -36.870556 1.401409 -0.580432 -30.746855 0.978639 2.882075 -24.523326 -0.000000 0.000000 -0.000001 1.711241 -7.754985 12.101723 0.000000 0.000000 0.000000 27.073569 48.930536 49.186726 -0.060280 27.828675 0.132389 -44.522919 -0.144314 -9.812283 6.128019 -20.859749 -12.793854 7.462468 -13.880855 0.364853 0.085881 -2.484343 -2.014474 -0.000000 0.000001 0.000001 0.859019 -2.692942 22.521533 0.406217 -1.924614 10.317814 0.295710 -0.801843 11.896018 0.000001 0.000001 0.000002 1.076568 -3.063814 25.779412 0.616198 -2.213301 18.259669 0.274529 -1.335251 10.805158 0.000001 -0.000000 -0.000000 1.379236 -3.508592 29.855491 0.861974 -2.698658 22.572435 0.452041 -1.844207 15.058583 0.000001 0.000000 0.000001 1.678050 -3.887218 33.506173 1.068608 -3.047198 25.784126 0.621720 -2.224686 18.361649 0.000000 -0.000001 -0.000000 -6.833566 5.869714 0.576931 20.328622 -6.206186 -0.674556 -12.798502 -0.890018 3.934717 -0.014040 0.000001 0.000000 -0.000000 -0.000000 0.000000 -7.262480 -3.077121 1.849688 18.876305 5.009685 -0.500879 -10.856704 0.159161 -1.005838 -0.000116 0.000001 -0.000001 0.000000 0.000000 0.000000 
1.600337 116.200981 0.955521 -0.709300 -0.221763 -1.735464 -8.177376 0.966831 1.416563 7.011702 -0.071746 -1.944896 0.000000 0.000000 0.000000 7.017103 0.003845 -1.932846 2.313502 -0.946553 2.947246 -5.389746 -2.180464 2.484540 0.000000 -0.000000 -0.000000 0.904810 -0.378311 -11.987838 0.000000 0.000000 0.000000 17.067825 -35.149984 -54.212052 -0.039378 -19.257927 -0.124044 -30.052723 -1.111402 6.847469 1.011095 26.175812 8.567876 5.814186 15.724648 2.009806 0.375725 5.427231 3.307482 -0.000000 -0.000001 0.000001 0.619608 2.206768 -18.388160 0.260647 1.521683 -7.066526 0.233040 0.599204 -10.271502 0.000001 -0.000000 -0.000001 0.962298 2.868102 -23.915107 0.570844 2.099290 -17.446733 0.307700 1.414280 -11.572893 -0.000001 -0.000001 -0.000003 1.488376 3.645120 -30.870679 0.995228 2.908858 -24.777107 0.642779 2.256386 -18.821877 -0.000001 0.000000 0.000002 4.482518 7.517927 -36.816564 1.396194 -0.587294 -30.678085 0.973952 2.874280 -24.450600 -0.000000 -0.000001 0.000000 1.711477 -7.731767 12.101044 0.000000 0.000000 0.000000 26.953433 48.893059 49.230060 -0.060323 27.841798 0.132415 -44.265114 -0.100458 -9.789439 6.140859 -20.878710 -12.793630 7.462468 -13.880855 0.364853 0.085882 -2.484340 -2.014471 -0.000001 -0.000001 0.000002 0.859512 -2.693826 22.529644 0.406639 -1.925665 10.326706 0.295889 -0.802379 11.900443 -0.000001 -0.000000 0.000001 1.085969 -3.083807 25.763789 0.615483 -2.211739 18.245959 0.267874 -1.334241 10.787299 -0.000000 -0.000000 0.000001 1.402762 -3.550960 29.810480 0.859413 -2.694034 22.530583 0.442795 -1.840750 15.012793 -0.000001 0.000000 -0.000001 1.716882 -3.947914 33.435313 1.064379 -3.040495 25.721195 0.618163 -2.216975 18.294392 -0.000000 0.000001 0.000000 -6.724385 6.033016 0.588283 20.311803 -6.198745 -0.665346 -12.788794 -0.672763 3.959594 -0.016316 -0.000001 -0.000002 -0.000000 -0.000000 -0.000000 -7.144580 -2.669435 1.858216 18.812491 4.633566 -0.392889 -10.812261 0.156610 -0.961360 -0.000026 -0.000001 -0.000000 -0.000000 0.000000 -0.000000 
